<svg width="169" height="32" viewBox="0 0 169 32" fill="none" xmlns="http://www.w3.org/2000/svg">
<path d="M29.3477 21.1758H36.8125V24H25.832V6.9375H29.3477V21.1758ZM44.4531 24.2344C42.5938 24.2344 41.0781 23.6641 39.9062 22.5234C38.7422 21.3828 38.1602 19.8633 38.1602 17.9648V17.6367C38.1602 16.3633 38.4062 15.2266 38.8984 14.2266C39.3906 13.2188 40.0859 12.4453 40.9844 11.9062C41.8906 11.3594 42.9219 11.0859 44.0781 11.0859C45.8125 11.0859 47.1758 11.6328 48.168 12.7266C49.168 13.8203 49.668 15.3711 49.668 17.3789V18.7617H41.5938C41.7031 19.5898 42.0312 20.2539 42.5781 20.7539C43.1328 21.2539 43.832 21.5039 44.6758 21.5039C45.9805 21.5039 47 21.0312 47.7344 20.0859L49.3984 21.9492C48.8906 22.668 48.2031 23.2305 47.3359 23.6367C46.4688 24.0352 45.5078 24.2344 44.4531 24.2344ZM44.0664 13.8281C43.3945 13.8281 42.8477 14.0547 42.4258 14.5078C42.0117 14.9609 41.7461 15.6094 41.6289 16.4531H46.3398V16.1836C46.3242 15.4336 46.1211 14.8555 45.7305 14.4492C45.3398 14.0352 44.7852 13.8281 44.0664 13.8281ZM58.9492 24C58.793 23.6953 58.6797 23.3164 58.6094 22.8633C57.7891 23.7773 56.7227 24.2344 55.4102 24.2344C54.168 24.2344 53.1367 23.875 52.3164 23.1562C51.5039 22.4375 51.0977 21.5312 51.0977 20.4375C51.0977 19.0938 51.5938 18.0625 52.5859 17.3438C53.5859 16.625 55.0273 16.2617 56.9102 16.2539H58.4688V15.5273C58.4688 14.9414 58.3164 14.4727 58.0117 14.1211C57.7148 13.7695 57.2422 13.5938 56.5938 13.5938C56.0234 13.5938 55.5742 13.7305 55.2461 14.0039C54.9258 14.2773 54.7656 14.6523 54.7656 15.1289H51.3789C51.3789 14.3945 51.6055 13.7148 52.0586 13.0898C52.5117 12.4648 53.1523 11.9766 53.9805 11.625C54.8086 11.2656 55.7383 11.0859 56.7695 11.0859C58.332 11.0859 59.5703 11.4805 60.4844 12.2695C61.4062 13.0508 61.8672 14.1523 61.8672 15.5742V21.0703C61.875 22.2734 62.043 23.1836 62.3711 23.8008V24H58.9492ZM56.1484 21.6445C56.6484 21.6445 57.1094 21.5352 57.5312 21.3164C57.9531 21.0898 58.2656 20.7891 58.4688 20.4141V18.2344H57.2031C55.5078 18.2344 54.6055 18.8203 54.4961 19.9922L54.4844 20.1914C54.4844 20.6133 54.6328 20.9609 54.9297 21.2344C55.2266 21.5078 55.6328 21.6445 56.1484 21.6445ZM63.9414 17.5664C63.9414 15.5898 64.3828 14.0156 65.2656 12.8438C66.1562 11.6719 67.3711 11.0859 68.9102 11.0859C70.1445 11.0859 71.1641 11.5469 71.9688 12.4688V6H75.3672V24H72.3086L72.1445 22.6523C71.3008 23.707 70.2148 24.2344 68.8867 24.2344C67.3945 24.2344 66.1953 23.6484 65.2891 22.4766C64.3906 21.2969 63.9414 19.6602 63.9414 17.5664ZM67.3281 17.8125C67.3281 19 67.5352 19.9102 67.9492 20.543C68.3633 21.1758 68.9648 21.4922 69.7539 21.4922C70.8008 21.4922 71.5391 21.0508 71.9688 20.168V15.1641C71.5469 14.2812 70.8164 13.8398 69.7773 13.8398C68.1445 13.8398 67.3281 15.1641 67.3281 17.8125Z" fill="black"/>
<path d="M82.1328 24H79.9648V11.3203H82.1328V24ZM79.7891 7.95703C79.7891 7.60547 79.8945 7.30859 80.1055 7.06641C80.3242 6.82422 80.6445 6.70312 81.0664 6.70312C81.4883 6.70312 81.8086 6.82422 82.0273 7.06641C82.2461 7.30859 82.3555 7.60547 82.3555 7.95703C82.3555 8.30859 82.2461 8.60156 82.0273 8.83594C81.8086 9.07031 81.4883 9.1875 81.0664 9.1875C80.6445 9.1875 80.3242 9.07031 80.1055 8.83594C79.8945 8.60156 79.7891 8.30859 79.7891 7.95703ZM87.6641 11.3203L87.7344 12.9141C88.7031 11.6953 89.9688 11.0859 91.5312 11.0859C94.2109 11.0859 95.5625 12.5977 95.5859 15.6211V24H93.418V15.6094C93.4102 14.6953 93.1992 14.0195 92.7852 13.582C92.3789 13.1445 91.7422 12.9258 90.875 12.9258C90.1719 12.9258 89.5547 13.1133 89.0234 13.4883C88.4922 13.8633 88.0781 14.3555 87.7812 14.9648V24H85.6133V11.3203H87.6641ZM101.094 11.3203V25.4648C101.094 27.9023 99.9883 29.1211 97.7773 29.1211C97.3008 29.1211 96.8594 29.0508 96.4531 28.9102V27.1758C96.7031 27.2383 97.0312 27.2695 97.4375 27.2695C97.9219 27.2695 98.2891 27.1367 98.5391 26.8711C98.7969 26.6133 98.9258 26.1602 98.9258 25.5117V11.3203H101.094ZM98.7031 7.95703C98.7031 7.61328 98.8086 7.32031 99.0195 7.07812C99.2383 6.82813 99.5547 6.70312 99.9688 6.70312C100.391 6.70312 100.711 6.82422 100.93 7.06641C101.148 7.30859 101.258 7.60547 101.258 7.95703C101.258 8.30859 101.148 8.60156 100.93 8.83594C100.711 9.07031 100.391 9.1875 99.9688 9.1875C99.5469 9.1875 99.2305 9.07031 99.0195 8.83594C98.8086 8.60156 98.7031 8.30859 98.7031 7.95703ZM109.859 24.2344C108.141 24.2344 106.742 23.6719 105.664 22.5469C104.586 21.4141 104.047 19.9023 104.047 18.0117V17.6133C104.047 16.3555 104.285 15.2344 104.762 14.25C105.246 13.2578 105.918 12.4844 106.777 11.9297C107.645 11.3672 108.582 11.0859 109.59 11.0859C111.238 11.0859 112.52 11.6289 113.434 12.7148C114.348 13.8008 114.805 15.3555 114.805 17.3789V18.2812H106.215C106.246 19.5312 106.609 20.543 107.305 21.3164C108.008 22.082 108.898 22.4648 109.977 22.4648C110.742 22.4648 111.391 22.3086 111.922 21.9961C112.453 21.6836 112.918 21.2695 113.316 20.7539L114.641 21.7852C113.578 23.418 111.984 24.2344 109.859 24.2344ZM109.59 12.8672C108.715 12.8672 107.98 13.1875 107.387 13.8281C106.793 14.4609 106.426 15.3516 106.285 16.5H112.637V16.3359C112.574 15.2344 112.277 14.3828 111.746 13.7812C111.215 13.1719 110.496 12.8672 109.59 12.8672ZM122.41 22.4648C123.184 22.4648 123.859 22.2305 124.438 21.7617C125.016 21.293 125.336 20.707 125.398 20.0039H127.449C127.41 20.7305 127.16 21.4219 126.699 22.0781C126.238 22.7344 125.621 23.2578 124.848 23.6484C124.082 24.0391 123.27 24.2344 122.41 24.2344C120.684 24.2344 119.309 23.6602 118.285 22.5117C117.27 21.3555 116.762 19.7773 116.762 17.7773V17.4141C116.762 16.1797 116.988 15.082 117.441 14.1211C117.895 13.1602 118.543 12.4141 119.387 11.8828C120.238 11.3516 121.242 11.0859 122.398 11.0859C123.82 11.0859 125 11.5117 125.938 12.3633C126.883 13.2148 127.387 14.3203 127.449 15.6797H125.398C125.336 14.8594 125.023 14.1875 124.461 13.6641C123.906 13.1328 123.219 12.8672 122.398 12.8672C121.297 12.8672 120.441 13.2656 119.832 14.0625C119.23 14.8516 118.93 15.9961 118.93 17.4961V17.9062C118.93 19.3672 119.23 20.4922 119.832 21.2812C120.434 22.0703 121.293 22.4648 122.41 22.4648ZM132.828 8.25V11.3203H135.195V12.9961H132.828V20.8594C132.828 21.3672 132.934 21.75 133.145 22.0078C133.355 22.2578 133.715 22.3828 134.223 22.3828C134.473 22.3828 134.816 22.3359 135.254 22.2422V24C134.684 24.1562 134.129 24.2344 133.59 24.2344C132.621 24.2344 131.891 23.9414 131.398 23.3555C130.906 22.7695 130.66 21.9375 130.66 20.8594V12.9961H128.352V11.3203H130.66V8.25H132.828ZM140.094 24H137.926V11.3203H140.094V24ZM137.75 7.95703C137.75 7.60547 137.855 7.30859 138.066 7.06641C138.285 6.82422 138.605 6.70312 139.027 6.70312C139.449 6.70312 139.77 6.82422 139.988 7.06641C140.207 7.30859 140.316 7.60547 140.316 7.95703C140.316 8.30859 140.207 8.60156 139.988 8.83594C139.77 9.07031 139.449 9.1875 139.027 9.1875C138.605 9.1875 138.285 9.07031 138.066 8.83594C137.855 8.60156 137.75 8.30859 137.75 7.95703ZM143 17.543C143 16.3008 143.242 15.1836 143.727 14.1914C144.219 13.1992 144.898 12.4336 145.766 11.8945C146.641 11.3555 147.637 11.0859 148.754 11.0859C150.48 11.0859 151.875 11.6836 152.938 12.8789C154.008 14.0742 154.543 15.6641 154.543 17.6484V17.8008C154.543 19.0352 154.305 20.1445 153.828 21.1289C153.359 22.1055 152.684 22.8672 151.801 23.4141C150.926 23.9609 149.918 24.2344 148.777 24.2344C147.059 24.2344 145.664 23.6367 144.594 22.4414C143.531 21.2461 143 19.6641 143 17.6953V17.543ZM145.18 17.8008C145.18 19.207 145.504 20.3359 146.152 21.1875C146.809 22.0391 147.684 22.4648 148.777 22.4648C149.879 22.4648 150.754 22.0352 151.402 21.1758C152.051 20.3086 152.375 19.0977 152.375 17.543C152.375 16.1523 152.043 15.0273 151.379 14.168C150.723 13.3008 149.848 12.8672 148.754 12.8672C147.684 12.8672 146.82 13.293 146.164 14.1445C145.508 14.9961 145.18 16.2148 145.18 17.8008ZM159.312 11.3203L159.383 12.9141C160.352 11.6953 161.617 11.0859 163.18 11.0859C165.859 11.0859 167.211 12.5977 167.234 15.6211V24H165.066V15.6094C165.059 14.6953 164.848 14.0195 164.434 13.582C164.027 13.1445 163.391 12.9258 162.523 12.9258C161.82 12.9258 161.203 13.1133 160.672 13.4883C160.141 13.8633 159.727 14.3555 159.43 14.9648V24H157.262V11.3203H159.312Z" fill="black"/>
<circle cx="12" cy="16" r="4" fill="#38CEA8"/>
<circle cx="12" cy="16.0001" r="7.5" stroke="#38CEA8"/>
<circle cx="12" cy="16" r="11.5" stroke="#38CEA8"/>
</svg>
