<svg width="24" height="23" viewBox="0 0 24 23" fill="none" xmlns="http://www.w3.org/2000/svg">
<path d="M13.1586 0.720526L15.8655 6.20538C16.0538 6.58686 16.4177 6.85119 16.8387 6.91226L22.8918 7.79186C23.9521 7.94606 24.3752 9.24868 23.6082 9.99612L19.2282 14.2655C18.9239 14.5623 18.7847 14.9904 18.8568 15.4094L19.8906 21.4379C20.0718 22.4937 18.9634 23.2987 18.0152 22.8006L12.6014 19.9546C12.225 19.7568 11.7749 19.7568 11.3984 19.9546L5.98468 22.8006C5.03649 23.2992 3.92811 22.4937 4.10933 21.4379L5.14312 15.4094C5.21521 14.9904 5.07604 14.5623 4.77166 14.2655L0.391685 9.99612C-0.375274 9.24819 0.047755 7.94556 1.10808 7.79186L7.16115 6.91226C7.58217 6.85119 7.94613 6.58686 8.13436 6.20538L10.8412 0.720526C11.3148 -0.240175 12.6846 -0.240175 13.1586 0.720526Z" fill="#ED8A19"/>
</svg>
