<svg width="24" height="20" viewBox="0 0 24 20" fill="none" xmlns="http://www.w3.org/2000/svg">
<path d="M9.132 19.9239C5.12639 19.9239 1.9605 19.224 0.445851 18.0042L0.416371 17.9804L0.389638 17.9536C0.0298359 17.5937 -0.088084 17.1214 0.0664569 16.6582L0.080556 16.6197C0.268056 16.1508 0.727467 15.8351 1.22533 15.8322C2.24999 15.8144 3.14647 15.6923 3.96001 15.4552C2.66234 14.8517 1.76091 13.8067 1.2246 12.2942C1.04424 11.8225 1.19988 11.2996 1.61553 10.9878C1.71807 10.9107 1.83397 10.8524 1.95665 10.8134C1.23558 9.98105 0.702931 9.03384 0.404652 8.03207L0.395314 8.00094L0.388905 7.96908C0.287648 7.46243 0.514149 6.94149 0.929249 6.71719C1.10338 6.61722 1.29253 6.5654 1.48241 6.561C1.2777 6.12008 1.12883 5.66745 1.04058 5.21206C0.795582 3.9501 0.99773 2.68503 1.64116 1.45199L1.79003 1.15426C1.90923 0.916043 2.13701 0.748685 2.39959 0.706021C2.66216 0.663541 2.93132 0.750333 3.11937 0.938382L3.39055 1.20993C5.53288 3.4559 7.45183 4.52157 10.7695 5.2507C10.9176 3.9772 11.4682 2.79342 12.3565 1.86178C13.4136 0.753262 14.8251 0.131253 16.3312 0.110013H16.341C17.4399 0.110013 18.8029 0.737332 19.6272 1.17972C20.3344 0.94827 21.1864 0.589932 22.0704 0.211087C22.484 0.0169953 22.994 0.105801 23.3192 0.430997C23.638 0.749783 23.7264 1.19931 23.5572 1.6362C23.493 1.81509 23.4201 1.99069 23.339 2.16244C23.46 2.21792 23.5708 2.29318 23.6643 2.38675C23.9472 2.66964 24.0652 3.11239 23.9646 3.51486L23.9538 3.55313C23.6151 4.6448 22.9643 5.53396 22.1037 6.09207C21.96 13.7461 16.1962 19.9239 9.132 19.9239ZM1.79552 17.2203C3.22283 18.0278 5.94286 18.5163 9.132 18.5163C12.1981 18.5163 15.0915 17.2 17.2791 14.8097C19.4846 12.3999 20.6991 9.19973 20.6991 5.79873V5.76046C20.6991 5.45248 20.8687 5.17141 21.1415 5.02676C21.695 4.73361 22.1433 4.23428 22.4348 3.59579C22.1341 3.64322 21.8285 3.52255 21.6412 3.27096C21.4235 2.97854 21.4211 2.58358 21.6352 2.2886C21.7507 2.1293 21.8554 1.96359 21.9488 1.7922C21.1855 2.11282 20.4605 2.4003 19.8312 2.59128C19.6025 2.66049 19.3476 2.63339 19.1387 2.51675C18.0183 1.89254 16.9748 1.51938 16.3456 1.51754C14.024 1.55307 12.1364 3.54141 12.1364 5.95218C12.1364 6.20138 12.0258 6.43503 11.8334 6.59341C11.6407 6.75161 11.3902 6.81497 11.1456 6.76663C7.32017 6.01297 5.05333 4.88284 2.69603 2.514C2.3582 3.32351 2.26592 4.13888 2.42211 4.944C2.58049 5.75955 3.00182 6.57675 3.64067 7.30716C3.88347 7.58438 3.9157 7.98099 3.72087 8.29391C3.52678 8.60574 3.15782 8.75149 2.80315 8.65646C2.52593 8.58212 2.27104 8.48452 2.02935 8.3591C2.52172 9.42862 3.36858 10.4178 4.43315 11.1472C4.74168 11.3587 4.87059 11.753 4.74681 12.106C4.62285 12.4596 4.2766 12.6872 3.90233 12.6593C3.49455 12.6291 3.13329 12.5517 2.80077 12.4211C3.39769 13.6367 4.35149 14.3056 5.82091 14.5612C6.17082 14.6222 6.44328 14.8985 6.49895 15.2488C6.55479 15.5991 6.38139 15.9463 6.06773 16.1127C4.81529 16.7766 3.4464 17.133 1.79552 17.2203Z" fill="#32505B"/>
</svg>
